<?xml version="1.0" standalone="no"?>
<!DOCTYPE svg PUBLIC "-//W3C//DTD SVG 20010904//EN"
 "http://www.w3.org/TR/2001/REC-SVG-20010904/DTD/svg10.dtd">
<svg version="1.0" xmlns="http://www.w3.org/2000/svg"
 width="231.000000pt" height="231.000000pt" viewBox="0 0 231.000000 231.000000"
 preserveAspectRatio="xMidYMid meet">
<metadata>
Created by potrace 1.11, written by Peter Selinger 2001-2013
</metadata>
<g transform="translate(0.000000,231.000000) scale(0.100000,-0.100000)"
fill="#000000" stroke="none">
<path d="M1040 2154 c-25 -7 -50 -12 -57 -9 -6 2 -17 -3 -23 -11 -7 -8 -20
-14 -30 -14 -10 0 -23 -7 -30 -15 -7 -8 -16 -12 -21 -9 -12 7 -60 -31 -51 -40
4 -4 -1 -12 -11 -17 -9 -6 -15 -15 -11 -20 3 -6 -4 -13 -16 -16 -16 -4 -18 -8
-8 -14 10 -7 8 -12 -9 -24 -13 -9 -23 -25 -23 -36 0 -10 -4 -19 -10 -19 -5 0
-10 -11 -10 -25 0 -14 -3 -25 -8 -25 -12 0 -13 -182 -1 -235 12 -49 45 -129
71 -170 23 -36 121 -125 137 -125 10 0 15 -14 12 -33 -1 -4 8 -3 20 3 16 9 24
9 33 -1 8 -9 8 -10 -4 -4 -8 5 -12 5 -8 0 5 -5 20 -9 35 -10 16 -2 64 -6 108
-10 71 -7 88 -5 158 19 42 14 94 37 115 50 61 39 141 132 175 204 31 64 32 72
32 193 -1 92 -4 131 -14 143 -8 9 -15 26 -16 39 -4 37 -5 38 -15 32 -5 -3 -10
1 -10 10 0 8 -7 18 -15 21 -8 4 -15 13 -15 21 0 16 -20 39 -35 40 -5 0 -17 13
-26 29 -10 18 -24 29 -37 28 -13 0 -18 4 -14 10 12 20 10 35 -5 29 -10 -4 -11
-8 -3 -13 8 -5 7 -9 -3 -13 -9 -3 -18 1 -21 10 -4 9 -13 13 -22 9 -8 -3 -12
-2 -9 4 3 6 -5 10 -19 10 -14 0 -28 5 -31 10 -9 15 -203 11 -255 -6z m225 -29
c252 -66 386 -345 277 -578 -43 -92 -108 -159 -201 -205 -72 -36 -79 -37 -180
-37 -99 0 -111 2 -174 32 -171 81 -271 268 -240 449 42 245 280 400 518 339z"/>
<path d="M1053 2066 c-60 -20 -104 -49 -157 -106 -72 -77 -91 -126 -90 -240 0
-80 4 -104 25 -150 93 -202 349 -272 535 -148 227 153 197 511 -54 626 -69 31
-192 40 -259 18z m67 -152 c69 -20 115 -50 168 -108 56 -61 83 -123 90 -204 5
-62 4 -64 -18 -60 -20 2 -25 12 -36 65 -15 74 -34 116 -74 165 -37 45 -140 98
-190 98 -44 0 -76 21 -67 44 8 21 56 21 127 0z m17 -117 c49 -26 102 -88 124
-146 26 -71 23 -106 -11 -106 -21 0 -25 6 -32 42 -17 105 -84 165 -203 185
-12 2 -21 13 -23 27 -4 23 -2 24 55 19 33 -3 73 -13 90 -21z m-58 -102 c48
-25 81 -72 81 -116 0 -36 -3 -40 -22 -37 -14 2 -24 13 -29 32 -11 41 -47 75
-86 82 -31 6 -44 29 -26 47 11 12 53 8 82 -8z m-45 -101 c9 -3 16 -16 16 -29
0 -25 -21 -38 -45 -29 -18 7 -20 50 -2 57 6 3 13 6 14 6 1 1 8 -2 17 -5z"/>
</g>
</svg>
